<?xml version="1.0" encoding="UTF-8" standalone="no"?>
<!-- Created with Inkscape (http://www.inkscape.org/) -->

<svg
   xmlns:dc="http://purl.org/dc/elements/1.1/"
   xmlns:cc="http://creativecommons.org/ns#"
   xmlns:rdf="http://www.w3.org/1999/02/22-rdf-syntax-ns#"
   xmlns:svg="http://www.w3.org/2000/svg"
   xmlns="http://www.w3.org/2000/svg"
   xmlns:sodipodi="http://sodipodi.sourceforge.net/DTD/sodipodi-0.dtd"
   xmlns:inkscape="http://www.inkscape.org/namespaces/inkscape"
   sodipodi:docname="solar.svg"
   inkscape:version="0.92.4 5da689c313, 2019-01-14"
   id="svg8"
   version="1.1"
   viewBox="0 0 33.10674 16.365495"
   height="61.85384"
   width="125.12784">
  <defs
     id="defs2" />
  <sodipodi:namedview
     id="base"
     pagecolor="#ffffff"
     bordercolor="#666666"
     borderopacity="1.0"
     inkscape:pageopacity="0.0"
     inkscape:pageshadow="2"
     inkscape:zoom="1.979899"
     inkscape:cx="-46.972411"
     inkscape:cy="-28.164206"
     inkscape:document-units="mm"
     inkscape:current-layer="layer1"
     showgrid="false"
     fit-margin-top="0"
     fit-margin-left="0"
     fit-margin-right="0"
     fit-margin-bottom="0"
     units="px"
     inkscape:window-width="2560"
     inkscape:window-height="1023"
     inkscape:window-x="0"
     inkscape:window-y="27"
     inkscape:window-maximized="1"
     inkscape:snap-nodes="false" />
  <metadata
     id="metadata5">
    <rdf:RDF>
      <cc:Work
         rdf:about="">
        <dc:format>image/svg+xml</dc:format>
        <dc:type
           rdf:resource="http://purl.org/dc/dcmitype/StillImage" />
        <dc:title></dc:title>
      </cc:Work>
    </rdf:RDF>
  </metadata>
  <g
     inkscape:label="Layer 1"
     inkscape:groupmode="layer"
     id="layer1"
     transform="translate(-27.880131,-150.39599)"
     style="display:inline">
    <g
       id="g884"
       transform="matrix(0.47666189,0,0,0.47666189,64.020848,78.085504)">
      <path
         style="opacity:1;fill:#003380;stroke-width:0.27236608"
         d="m -23.874985,152.6843 c 0,0 16.9339697,29.33049 16.9339697,29.33049 1.2492229,2.16372 0.4091652,4.0206 -1.9660038,4.0206 0,0 -64.3009089,0 -64.3009089,0 -2.375154,0 -3.27544,-1.85688 -2.096398,-4.0206 0,0 15.982626,-29.33049 15.982626,-29.33049 0.30076,-0.55194 1.436488,-0.98246 2.55583,-0.98246 0,0 30.303182,0 30.303182,0 1.119349,0 2.269041,0.43052 2.587703,0.98246 0,0 0,0 0,0"
         id="rect873"
         inkscape:connector-curvature="0" />
      <path
         style="opacity:1;fill:#5599ff;stroke-width:0.26458332"
         d="m -24.258619,152.90309 c 0,0 4.49027,7.99954 4.49027,7.99954 0.497282,0.88592 -0.271161,1.62832 -1.743298,1.62832 0,0 -17.006673,0 -17.006673,0 -1.472137,0 -2.674041,-0.7424 -2.694033,-1.62832 0,0 -0.180522,-7.99954 -0.180522,-7.99954 -0.01227,-0.54383 0.860196,-0.96832 1.955832,-0.96832 0,0 12.657202,0 12.657202,0 1.095637,0 2.215961,0.42449 2.521222,0.96832 0,0 0,0 0,0"
         id="rect4518"
         inkscape:connector-curvature="0" />
      <path
         style="opacity:1;fill:#5599ff;stroke-width:0.26458332"
         d="m -17.655858,164.66609 c 0,0 9.2903815,16.55108 9.2903815,16.55108 1.1474497,2.04421 0.3012972,3.79376 -1.9695925,3.79376 0,0 -26.234163,0 -26.234163,0 -2.27089,0 -4.138561,-1.74955 -4.184692,-3.79376 0,0 -0.373501,-16.55108 -0.373501,-16.55108 -0.02288,-1.01409 1.15428,-1.79683 2.638438,-1.79683 0,0 17.145544,0 17.145544,0 1.484158,0 3.118356,0.78274 3.687585,1.79683 0,0 0,0 0,0"
         id="rect4518-3"
         inkscape:connector-curvature="0" />
      <path
         style="opacity:1;fill:#5599ff;stroke-width:0.26458332"
         d="m -41.796728,152.90309 c 0,0 0.07894,7.99954 0.07894,7.99954 0.0087,0.88592 -1.169081,1.62832 -2.641228,1.62832 0,0 -17.006673,0 -17.006673,0 -1.472137,0 -2.26465,-0.7424 -1.796102,-1.62832 0,0 4.230806,-7.99954 4.230806,-7.99954 0.287622,-0.54383 1.39417,-0.96832 2.489807,-0.96832 0,0 12.657202,0 12.657202,0 1.095644,0 1.98188,0.42449 1.987247,0.96832 0,0 0,0 0,0"
         id="rect4518-6"
         inkscape:connector-curvature="0" />
      <path
         style="opacity:1;fill:#5599ff;stroke-width:0.26458332"
         d="m -41.680648,164.66609 c 0,0 0.163331,16.55108 0.163331,16.55108 0.02017,2.04421 -1.790752,3.79376 -4.061658,3.79376 0,0 -26.234162,0 -26.234162,0 -2.27089,0 -3.173774,-1.74955 -2.092628,-3.79376 0,0 8.753551,-16.55108 8.753551,-16.55108 0.536336,-1.01409 2.145136,-1.79683 3.629294,-1.79683 0,0 17.145545,0 17.145545,0 1.484168,0 2.68672,0.78274 2.696727,1.79683 0,0 0,0 0,0"
         id="rect4518-3-7"
         inkscape:connector-curvature="0" />
    </g>
    <path
       style="fill:none;stroke:none;stroke-width:0.26458332px;stroke-linecap:butt;stroke-linejoin:miter;stroke-opacity:1"
       d="m -58.786342,151.70184 h 34.344134 l 19.8224856,34.33355 H -77.495208 Z"
       id="path904"
       inkscape:connector-curvature="0"
       sodipodi:nodetypes="ccccc" />
  </g>
</svg>
